<?xml version="1.0" encoding="utf-8"?>
<!-- Generator: Adobe Illustrator 16.0.0, SVG Export Plug-In . SVG Version: 6.00 Build 0)  -->
<!DOCTYPE svg PUBLIC "-//W3C//DTD SVG 1.1//EN" "http://www.w3.org/Graphics/SVG/1.1/DTD/svg11.dtd">
<svg version="1.1" id="图层_1" xmlns="http://www.w3.org/2000/svg" xmlns:xlink="http://www.w3.org/1999/xlink" x="0px" y="0px"
	 width="18px" height="18px" viewBox="0 0 18 18" enable-background="new 0 0 18 18" xml:space="preserve">
<g>
	<g>
		<path fill-rule="evenodd" clip-rule="evenodd" fill="#EE2F3C" d="M9.5,1.5c-7,0-10,7-10,7s3,7,10,7s10-7,10-7S16.5,1.5,9.5,1.5z
			 M9.5,12.5c-2.209,0-4-1.791-4-4c0-2.209,1.791-4,4-4s4,1.791,4,4C13.5,10.709,11.709,12.5,9.5,12.5z M9.5,6.5
			c-1.104,0-2,0.896-2,2s0.896,2,2,2s2-0.896,2-2S10.604,6.5,9.5,6.5z"/>
	</g>
</g>
</svg>
