<?xml version="1.0" encoding="utf-8"?>
<!-- Generator: Adobe Illustrator 16.0.0, SVG Export Plug-In . SVG Version: 6.00 Build 0)  -->
<!DOCTYPE svg PUBLIC "-//W3C//DTD SVG 1.1//EN" "http://www.w3.org/Graphics/SVG/1.1/DTD/svg11.dtd">
<svg version="1.1" id="图层_1" xmlns="http://www.w3.org/2000/svg" xmlns:xlink="http://www.w3.org/1999/xlink" x="0px" y="0px"
	 width="18px" height="18px" viewBox="0 0 18 18" enable-background="new 0 0 18 18" xml:space="preserve">
<g>
	<g>
		<path fill-rule="evenodd" clip-rule="evenodd" fill="#715EE6" d="M12.369,4.453C11.302,4.244,10.5,3.352,10.5,2.283
			c0-0.737,0.389-1.379,0.976-1.783H2.5c-1.104,0-2,0.896-2,2v14c0,1.104,0.896,2,2,2h14c1.104,0,2-0.896,2-2v-12h-5.88
			L12.369,4.453z M9.5,15.5c0,0-4,0-4-3s4-8,4-8s4,5,4,8S9.5,15.5,9.5,15.5z M12.507,3.471L12.642,3.5h4.667l0.15-0.037
			C18.055,3.314,18.5,2.73,18.5,2.033c0-0.661-0.398-1.219-0.946-1.403c-0.06-1.188-0.958-2.13-2.058-2.13
			c-0.797,0-1.487,0.496-1.83,1.221c-0.074-0.017-0.151-0.025-0.229-0.025c-0.594,0-1.081,0.496-1.137,1.13
			c-0.469,0.203-0.8,0.703-0.8,1.289C11.5,2.782,11.932,3.34,12.507,3.471z"/>
	</g>
</g>
</svg>
